{
  "accessors": [
    {
      "bufferView": 1,
      "componentType": 5126,
      "count": 11362,
      "max": [
        0.5523863434791565,
        20.0,
        19.986602783203125
      ],
      "min": [
        -20.0,
        -20.0,
        -19.986602783203125
      ],
      "type": "VEC3"
    },
    {
      "bufferView": 1,
      "byteOffset": 136344,
      "componentType": 5126,
      "count": 11362,
      "max": [
        1.0,
        1.0,
        1.0
      ],
      "min": [
        -1.0,
        -1.0,
        -1.0
      ],
      "type": "VEC3"
    },
    {
      "bufferView": 0,
      "componentType": 5125,
      "count": 55836,
      "type": "SCALAR"
    },
    {
      "bufferView": 1,
      "byteOffset": 272688,
      "componentType": 5126,
      "count": 1723,
      "max": [
        -4.629269123077393,
        1.8973071575164795,
        1.8993266820907593
      ],
      "min": [
        -5.223586559295654,
        -1.899999976158142,
        -1.8993266820907593
      ],
      "type": "VEC3"
    },
    {
      "bufferView": 1,
      "byteOffset": 293364,
      "componentType": 5126,
      "count": 1723,
      "max": [
        0.9983922243118286,
        0.9985827207565308,
        0.9996457099914551
      ],
      "min": [
        -0.9994734525680542,
        -1.0,
        -0.9996457099914551
      ],
      "type": "VEC3"
    },
    {
      "bufferView": 0,
      "byteOffset": 223344,
      "componentType": 5125,
      "count": 7248,
      "type": "SCALAR"
    }
  ],
  "asset": {
    "extras": {
      "author": "Xieyn (https://sketchfab.com/xieyna)",
      "license": "SKETCHFAB Standard (https://sketchfab.com/licenses)",
      "source": "https://sketchfab.com/3d-models/sport-alloy-wheel-rim-859a869f75034e6dabf3ed25112304f2",
      "title": "Sport Alloy Wheel Rim"
    },
    "generator": "Sketchfab-16.95.0",
    "version": "2.0"
  },
  "bufferViews": [
    {
      "buffer": 0,
      "byteLength": 252336,
      "name": "floatBufferViews",
      "target": 34963
    },
    {
      "buffer": 0,
      "byteLength": 314040,
      "byteOffset": 252336,
      "byteStride": 12,
      "name": "floatBufferViews",
      "target": 34962
    }
  ],
  "buffers": [
    {
      "byteLength": 566376,
      "uri": "scene.bin"
    }
  ],
  "materials": [
    {
      "doubleSided": true,
      "name": "SemiPolished",
      "pbrMetallicRoughness": {
        "baseColorFactor": [
          0.514766,
          0.502498,
          0.490403,
          1.0
        ],
        "roughnessFactor": 0.6
      }
    }
  ],
  "meshes": [
    {
      "name": "Object_0",
      "primitives": [
        {
          "attributes": {
            "NORMAL": 1,
            "POSITION": 0
          },
          "indices": 2,
          "material": 0,
          "mode": 4
        }
      ]
    },
    {
      "name": "Object_1",
      "primitives": [
        {
          "attributes": {
            "NORMAL": 4,
            "POSITION": 3
          },
          "indices": 5,
          "material": 0,
          "mode": 4
        }
      ]
    }
  ],
  "nodes": [
    {
      "children": [
        1
      ],
      "matrix": [
        1.0,
        0.0,
        0.0,
        0.0,
        0.0,
        2.220446049250313e-16,
        -1.0,
        0.0,
        0.0,
        1.0,
        2.220446049250313e-16,
        0.0,
        0.0,
        0.0,
        0.0,
        1.0
      ],
      "name": "Sketchfab_model"
    },
    {
      "children": [
        2
      ],
      "name": "root"
    },
    {
      "children": [
        3,
        5
      ],
      "matrix": [
        1.0,
        0.0,
        0.0,
        0.0,
        0.0,
        2.220446049250313e-16,
        1.0,
        0.0,
        0.0,
        -1.0,
        2.220446049250313e-16,
        0.0,
        0.0,
        0.0,
        0.0,
        1.0
      ],
      "name": "GLTF_SceneRootNode"
    },
    {
      "children": [
        4
      ],
      "matrix": [
        0.009999999776482582,
        0.0,
        0.0,
        0.0,
        0.0,
        0.009999999776482582,
        0.0,
        0.0,
        0.0,
        0.0,
        0.009999999776482582,
        0.0,
        0.0,
        0.0,
        0.0,
        1.0
      ],
      "name": "Solid1_0"
    },
    {
      "mesh": 0,
      "name": "Object_4"
    },
    {
      "children": [
        6
      ],
      "matrix": [
        0.009999999776482582,
        0.0,
        0.0,
        0.0,
        0.0,
        0.009999999776482582,
        0.0,
        0.0,
        0.0,
        0.0,
        0.009999999776482582,
        0.0,
        0.0,
        0.0,
        0.0,
        1.0
      ],
      "name": "Solid4_1"
    },
    {
      "mesh": 1,
      "name": "Object_6"
    }
  ],
  "scene": 0,
  "scenes": [
    {
      "name": "Sketchfab_Scene",
      "nodes": [
        0
      ]
    }
  ]
}
