{
  "accessors": [
    {
      "bufferView": 2,
      "componentType": 5126,
      "count": 65532,
      "max": [
        6.377971172332764,
        6.378771781921387,
        -3.6748247146606445
      ],
      "min": [
        -6.366860389709473,
        -6.424808502197266,
        -5.9378662109375
      ],
      "type": "VEC3"
    },
    {
      "bufferView": 2,
      "byteOffset": 786384,
      "componentType": 5126,
      "count": 65532,
      "max": [
        1.0,
        1.0,
        1.0
      ],
      "min": [
        -1.0,
        -1.0,
        -0.9999769926071167
      ],
      "type": "VEC3"
    },
    {
      "bufferView": 1,
      "componentType": 5126,
      "count": 65532,
      "max": [
        1.0,
        1.0
      ],
      "min": [
        0.0,
        0.0
      ],
      "type": "VEC2"
    },
    {
      "bufferView": 0,
      "componentType": 5125,
      "count": 309327,
      "type": "SCALAR"
    },
    {
      "bufferView": 2,
      "byteOffset": 1572768,
      "componentType": 5126,
      "count": 65532,
      "max": [
        6.424807071685791,
        6.424813747406006,
        -4.04410457611084
      ],
      "min": [
        -6.424808502197266,
        -6.378767013549805,
        -5.937871932983398
      ],
      "type": "VEC3"
    },
    {
      "bufferView": 2,
      "byteOffset": 2359152,
      "componentType": 5126,
      "count": 65532,
      "max": [
        1.0,
        1.0,
        1.0
      ],
      "min": [
        -0.9999984502792358,
        -1.0,
        -1.0
      ],
      "type": "VEC3"
    },
    {
      "bufferView": 1,
      "byteOffset": 524256,
      "componentType": 5126,
      "count": 65532,
      "max": [
        1.0,
        1.0
      ],
      "min": [
        0.0,
        0.0
      ],
      "type": "VEC2"
    },
    {
      "bufferView": 0,
      "byteOffset": 1237308,
      "componentType": 5125,
      "count": 314361,
      "type": "SCALAR"
    },
    {
      "bufferView": 2,
      "byteOffset": 3145536,
      "componentType": 5126,
      "count": 65532,
      "max": [
        6.502601623535156,
        6.502608299255371,
        -3.7057595252990723
      ],
      "min": [
        -6.502603530883789,
        -6.502603530883789,
        -5.937871932983398
      ],
      "type": "VEC3"
    },
    {
      "bufferView": 2,
      "byteOffset": 3931920,
      "componentType": 5126,
      "count": 65532,
      "max": [
        1.0,
        1.0,
        1.0
      ],
      "min": [
        -1.0,
        -1.0,
        -1.0
      ],
      "type": "VEC3"
    },
    {
      "bufferView": 1,
      "byteOffset": 1048512,
      "componentType": 5126,
      "count": 65532,
      "max": [
        1.0,
        1.0
      ],
      "min": [
        0.0,
        0.0
      ],
      "type": "VEC2"
    },
    {
      "bufferView": 0,
      "byteOffset": 2494752,
      "componentType": 5125,
      "count": 293559,
      "type": "SCALAR"
    },
    {
      "bufferView": 2,
      "byteOffset": 4718304,
      "componentType": 5126,
      "count": 65532,
      "max": [
        6.502601623535156,
        6.501814365386963,
        1.7630207538604736
      ],
      "min": [
        -6.502603530883789,
        -6.502603530883789,
        -5.937870502471924
      ],
      "type": "VEC3"
    },
    {
      "bufferView": 2,
      "byteOffset": 5504688,
      "componentType": 5126,
      "count": 65532,
      "max": [
        1.0,
        1.0,
        1.0
      ],
      "min": [
        -1.0,
        -1.0,
        -1.0
      ],
      "type": "VEC3"
    },
    {
      "bufferView": 1,
      "byteOffset": 1572768,
      "componentType": 5126,
      "count": 65532,
      "max": [
        1.0,
        1.0
      ],
      "min": [
        0.0,
        0.0
      ],
      "type": "VEC2"
    },
    {
      "bufferView": 0,
      "byteOffset": 3668988,
      "componentType": 5125,
      "count": 306810,
      "type": "SCALAR"
    },
    {
      "bufferView": 2,
      "byteOffset": 6291072,
      "componentType": 5126,
      "count": 38045,
      "max": [
        6.3049397468566895,
        6.127923488616943,
        -3.783094882965088
      ],
      "min": [
        -6.358921051025391,
        -5.999319553375244,
        -5.937871932983398
      ],
      "type": "VEC3"
    },
    {
      "bufferView": 2,
      "byteOffset": 6747612,
      "componentType": 5126,
      "count": 38045,
      "max": [
        1.0,
        1.0,
        1.0
      ],
      "min": [
        -1.0,
        -1.0,
        -1.0
      ],
      "type": "VEC3"
    },
    {
      "bufferView": 1,
      "byteOffset": 2097024,
      "componentType": 5126,
      "count": 38045,
      "max": [
        1.0,
        1.0
      ],
      "min": [
        0.0,
        0.0
      ],
      "type": "VEC2"
    },
    {
      "bufferView": 0,
      "byteOffset": 4896228,
      "componentType": 5125,
      "count": 184326,
      "type": "SCALAR"
    },
    {
      "bufferView": 2,
      "byteOffset": 7204152,
      "componentType": 5126,
      "count": 10553,
      "max": [
        0.1790759265422821,
        -5.428715229034424,
        -4.062748908996582
      ],
      "min": [
        -0.18157503008842468,
        -6.036948204040527,
        -5.409473896026611
      ],
      "type": "VEC3"
    },
    {
      "bufferView": 2,
      "byteOffset": 7330788,
      "componentType": 5126,
      "count": 10553,
      "max": [
        0.9999984502792358,
        0.9998579025268555,
        0.9992961883544922
      ],
      "min": [
        -0.9999985694885254,
        -0.999854564666748,
        -0.9993135929107666
      ],
      "type": "VEC3"
    },
    {
      "bufferView": 1,
      "byteOffset": 2401384,
      "componentType": 5126,
      "count": 10553,
      "max": [
        1.0,
        1.0
      ],
      "min": [
        0.0,
        0.0
      ],
      "type": "VEC2"
    },
    {
      "bufferView": 0,
      "byteOffset": 5633532,
      "componentType": 5125,
      "count": 38685,
      "type": "SCALAR"
    },
    {
      "bufferView": 2,
      "byteOffset": 7457424,
      "componentType": 5126,
      "count": 101,
      "max": [
        0.7217102646827698,
        0.721714437007904,
        -4.497435092926025
      ],
      "min": [
        -0.7217114567756653,
        -0.7217081189155579,
        -4.497436046600342
      ],
      "type": "VEC3"
    },
    {
      "bufferView": 2,
      "byteOffset": 7458636,
      "componentType": 5126,
      "count": 101,
      "max": [
        0.0,
        0.0,
        -1.0
      ],
      "min": [
        0.0,
        0.0,
        -1.0
      ],
      "type": "VEC3"
    },
    {
      "bufferView": 1,
      "byteOffset": 2485808,
      "componentType": 5126,
      "count": 101,
      "max": [
        1.0,
        1.0
      ],
      "min": [
        0.0,
        0.0
      ],
      "type": "VEC2"
    },
    {
      "bufferView": 0,
      "byteOffset": 5788272,
      "componentType": 5125,
      "count": 408,
      "type": "SCALAR"
    },
    {
      "bufferView": 2,
      "byteOffset": 7459848,
      "componentType": 5126,
      "count": 22501,
      "max": [
        0.7978177666664124,
        0.7978220582008362,
        -4.0763373374938965
      ],
      "min": [
        -0.7978190779685974,
        -0.7978156805038452,
        -4.510319232940674
      ],
      "type": "VEC3"
    },
    {
      "bufferView": 2,
      "byteOffset": 7729860,
      "componentType": 5126,
      "count": 22501,
      "max": [
        1.0,
        1.0,
        1.0
      ],
      "min": [
        -1.0,
        -1.0,
        -1.0
      ],
      "type": "VEC3"
    },
    {
      "bufferView": 1,
      "byteOffset": 2486616,
      "componentType": 5126,
      "count": 22501,
      "max": [
        0.99853515625,
        1.0000801086425781
      ],
      "min": [
        0.0,
        0.06811392307281494
      ],
      "type": "VEC2"
    },
    {
      "bufferView": 0,
      "byteOffset": 5789904,
      "componentType": 5125,
      "count": 90792,
      "type": "SCALAR"
    },
    {
      "bufferView": 2,
      "byteOffset": 7999872,
      "componentType": 5126,
      "count": 6728,
      "max": [
        1.5397145748138428,
        1.34280264377594,
        -3.9382238388061523
      ],
      "min": [
        -1.548126459121704,
        -1.627052664756775,
        -4.787237167358398
      ],
      "type": "VEC3"
    },
    {
      "bufferView": 2,
      "byteOffset": 8080608,
      "componentType": 5126,
      "count": 6728,
      "max": [
        1.0,
        1.0,
        1.0
      ],
      "min": [
        -1.0,
        -1.0,
        -1.0
      ],
      "type": "VEC3"
    },
    {
      "bufferView": 1,
      "byteOffset": 2666624,
      "componentType": 5126,
      "count": 6728,
      "max": [
        0.99853515625,
        0.9999018907546997
      ],
      "min": [
        0.0,
        0.2052190899848938
      ],
      "type": "VEC2"
    },
    {
      "bufferView": 0,
      "byteOffset": 6153072,
      "componentType": 5125,
      "count": 23868,
      "type": "SCALAR"
    }
  ],
  "asset": {
    "extras": {
      "author": "ilvskf (https://sketchfab.com/ilvskf)",
      "license": "CC-BY-4.0 (http://creativecommons.org/licenses/by/4.0/)",
      "source": "https://sketchfab.com/3d-models/rays-homura-2x7-f2da4e9b0d04418aa1b53022d692ea6b",
      "title": "RAYS HOMURA 2x7"
    },
    "generator": "Sketchfab-17.15.0",
    "version": "2.0"
  },
  "bufferViews": [
    {
      "buffer": 0,
      "byteLength": 6248544,
      "name": "floatBufferViews",
      "target": 34963
    },
    {
      "buffer": 0,
      "byteLength": 2720448,
      "byteOffset": 6248544,
      "byteStride": 8,
      "name": "floatBufferViews",
      "target": 34962
    },
    {
      "buffer": 0,
      "byteLength": 8161344,
      "byteOffset": 8968992,
      "byteStride": 12,
      "name": "floatBufferViews",
      "target": 34962
    }
  ],
  "buffers": [
    {
      "byteLength": 17130336,
      "uri": "scene.bin"
    }
  ],
  "extensionsUsed": [
    "KHR_materials_specular"
  ],
  "images": [
    {
      "uri": "textures/material_2_baseColor.jpeg"
    }
  ],
  "materials": [
    {
      "doubleSided": true,
      "extensions": {
        "KHR_materials_specular": {
          "specularColorFactor": [
            1.0,
            1.0,
            1.0
          ],
          "specularFactor": 0.5
        }
      },
      "name": "wheel_matte_black",
      "pbrMetallicRoughness": {
        "baseColorFactor": [
          0.035,
          0.035,
          0.038,
          1.0
        ],
        "metallicFactor": 0.08,
        "roughnessFactor": 0.55
      }
    },
    {
      "doubleSided": true,
      "extensions": {
        "KHR_materials_specular": {
          "specularColorFactor": [
            1.0,
            1.0,
            1.0
          ],
          "specularFactor": 0.3
        }
      },
      "name": "valve_stem_rubber",
      "pbrMetallicRoughness": {
        "baseColorFactor": [
          0.02,
          0.02,
          0.02,
          1.0
        ],
        "roughnessFactor": 0.75,
        "metallicFactor": 0.0
      }
    },
    {
      "doubleSided": true,
      "extensions": {
        "KHR_materials_specular": {
          "specularColorFactor": [
            1.0,
            1.0,
            1.0
          ],
          "specularFactor": 1.0
        }
      },
      "name": "center_cap_logo_chrome",
      "pbrMetallicRoughness": {
        "baseColorTexture": {
          "index": 0
        },
        "metallicFactor": 0.9,
        "roughnessFactor": 0.15
      }
    },
    {
      "doubleSided": true,
      "extensions": {
        "KHR_materials_specular": {
          "specularColorFactor": [
            1.0,
            1.0,
            1.0
          ],
          "specularFactor": 1.0
        }
      },
      "name": "center_cap_body",
      "pbrMetallicRoughness": {
        "baseColorFactor": [
          0.025,
          0.025,
          0.027,
          1.0
        ],
        "metallicFactor": 0.1,
        "roughnessFactor": 0.45
      }
    },
    {
      "doubleSided": true,
      "name": "lug_nuts_black_chrome",
      "pbrMetallicRoughness": {
        "baseColorFactor": [
          0.045,
          0.045,
          0.048,
          1.0
        ],
        "metallicFactor": 0.75,
        "roughnessFactor": 0.3
      }
    }
  ],
  "meshes": [
    {
      "name": "Object_0",
      "primitives": [
        {
          "attributes": {
            "NORMAL": 1,
            "POSITION": 0,
            "TEXCOORD_0": 2
          },
          "indices": 3,
          "material": 0,
          "mode": 4
        }
      ]
    },
    {
      "name": "Object_1",
      "primitives": [
        {
          "attributes": {
            "NORMAL": 5,
            "POSITION": 4,
            "TEXCOORD_0": 6
          },
          "indices": 7,
          "material": 0,
          "mode": 4
        }
      ]
    },
    {
      "name": "Object_2",
      "primitives": [
        {
          "attributes": {
            "NORMAL": 9,
            "POSITION": 8,
            "TEXCOORD_0": 10
          },
          "indices": 11,
          "material": 0,
          "mode": 4
        }
      ]
    },
    {
      "name": "Object_3",
      "primitives": [
        {
          "attributes": {
            "NORMAL": 13,
            "POSITION": 12,
            "TEXCOORD_0": 14
          },
          "indices": 15,
          "material": 0,
          "mode": 4
        }
      ]
    },
    {
      "name": "Object_4",
      "primitives": [
        {
          "attributes": {
            "NORMAL": 17,
            "POSITION": 16,
            "TEXCOORD_0": 18
          },
          "indices": 19,
          "material": 0,
          "mode": 4
        }
      ]
    },
    {
      "name": "Object_5",
      "primitives": [
        {
          "attributes": {
            "NORMAL": 21,
            "POSITION": 20,
            "TEXCOORD_0": 22
          },
          "indices": 23,
          "material": 1,
          "mode": 4
        }
      ]
    },
    {
      "name": "Object_6",
      "primitives": [
        {
          "attributes": {
            "NORMAL": 25,
            "POSITION": 24,
            "TEXCOORD_0": 26
          },
          "indices": 27,
          "material": 2,
          "mode": 4
        }
      ]
    },
    {
      "name": "Object_7",
      "primitives": [
        {
          "attributes": {
            "NORMAL": 29,
            "POSITION": 28,
            "TEXCOORD_0": 30
          },
          "indices": 31,
          "material": 3,
          "mode": 4
        }
      ]
    },
    {
      "name": "Object_8",
      "primitives": [
        {
          "attributes": {
            "NORMAL": 33,
            "POSITION": 32,
            "TEXCOORD_0": 34
          },
          "indices": 35,
          "material": 4,
          "mode": 4
        }
      ]
    }
  ],
  "nodes": [
    {
      "children": [
        1
      ],
      "matrix": [
        1.0,
        0.0,
        0.0,
        0.0,
        0.0,
        2.220446049250313e-16,
        -1.0,
        0.0,
        0.0,
        1.0,
        2.220446049250313e-16,
        0.0,
        0.0,
        0.0,
        0.0,
        1.0
      ],
      "name": "Sketchfab_model"
    },
    {
      "children": [
        2
      ],
      "name": "root"
    },
    {
      "children": [
        3
      ],
      "matrix": [
        1.0,
        0.0,
        0.0,
        0.0,
        0.0,
        2.220446049250313e-16,
        1.0,
        0.0,
        0.0,
        -1.0,
        2.220446049250313e-16,
        0.0,
        0.0,
        0.0,
        0.0,
        1.0
      ],
      "name": "GLTF_SceneRootNode"
    },
    {
      "children": [
        4
      ],
      "matrix": [
        0.009999998845160007,
        0.0,
        0.0,
        0.0,
        0.0,
        0.0,
        0.009999999776482582,
        0.0,
        0.0,
        -0.009999999776482582,
        0.0,
        0.0,
        0.0,
        0.0,
        0.0,
        1.0
      ],
      "name": "scene_12"
    },
    {
      "children": [
        5
      ],
      "matrix": [
        23.081634521484375,
        0.0,
        0.0,
        0.0,
        0.0,
        23.081632614135742,
        0.0,
        0.0,
        0.0,
        0.0,
        23.081632614135742,
        0.0,
        0.0,
        0.0,
        0.0,
        1.0
      ],
      "name": "Meshes_11"
    },
    {
      "children": [
        6
      ],
      "matrix": [
        1.0,
        0.0,
        -0.0,
        0.0,
        -0.0,
        -3.371747936409264e-07,
        -0.999999999999943,
        0.0,
        0.0,
        0.999999999999943,
        -3.371747936409264e-07,
        0.0,
        0.0,
        0.0,
        0.0,
        1.0
      ],
      "name": "Sketchfab_model_10"
    },
    {
      "children": [
        7
      ],
      "name": "WORK_VS_XX_obj_cleaner_materialmerger_gles_9"
    },
    {
      "children": [
        8,
        9,
        10,
        11,
        12,
        13,
        14,
        15,
        16
      ],
      "matrix": [
        -0.18248963356017855,
        0.0,
        -2.7555171265809443e-08,
        0.0,
        0.0,
        0.18248958885669708,
        0.0,
        0.0,
        2.2627447034114267e-08,
        0.0,
        -0.1498547941446287,
        0.0,
        0.0,
        0.0,
        -0.3330933451652527,
        1.0
      ],
      "name": "Object_4.003_8"
    },
    {
      "mesh": 0,
      "name": "Object_8"
    },
    {
      "mesh": 1,
      "name": "Object_9"
    },
    {
      "mesh": 2,
      "name": "Object_10"
    },
    {
      "mesh": 3,
      "name": "Object_11"
    },
    {
      "mesh": 4,
      "name": "Object_12"
    },
    {
      "mesh": 5,
      "name": "Object_13"
    },
    {
      "mesh": 6,
      "name": "Object_14"
    },
    {
      "mesh": 7,
      "name": "Object_15"
    },
    {
      "mesh": 8,
      "name": "Object_16"
    }
  ],
  "samplers": [
    {
      "magFilter": 9729,
      "minFilter": 9987,
      "wrapS": 10497,
      "wrapT": 10497
    }
  ],
  "scene": 0,
  "scenes": [
    {
      "name": "Sketchfab_Scene",
      "nodes": [
        0
      ]
    }
  ],
  "textures": [
    {
      "sampler": 0,
      "source": 0
    }
  ]
}